# Blender 4.4.0
# www.blender.org
o Cube
v 0.500000 0.500000 0.500000
v 0.500000 0.500000 -0.500000
v 0.500000 -0.500000 0.500000
v 0.500000 -0.500000 -0.500000
v -0.500000 0.500000 0.500000
v -0.500000 0.500000 -0.500000
v -0.500000 -0.500000 0.500000
v -0.500000 -0.500000 -0.500000
v -0.500000 -0.484375 -0.500000
v 0.500000 -0.484375 0.500000
v -0.500000 -0.484375 0.500000
v 0.500000 -0.484375 -0.500000
v 0.484262 -0.500000 -0.500000
v 0.484262 0.500000 0.500000
v 0.484262 0.500000 -0.500000
v 0.484262 -0.500000 0.500000
v 0.484262 -0.484375 0.500000
v 0.484262 -0.484375 -0.500000
v -0.500000 -0.500000 0.484375
v 0.500000 0.500000 0.484375
v 0.500000 -0.500000 0.484375
v -0.500000 0.500000 0.484375
v -0.500000 -0.484375 0.484375
v 0.500000 -0.484375 0.484375
v 0.484262 -0.500000 0.484375
v 0.484262 0.500000 0.484375
v -0.500000 0.484375 0.500000
v 0.500000 0.484375 -0.500000
v -0.500000 0.484375 -0.500000
v 0.500000 0.484375 0.500000
v 0.484262 0.484375 0.500000
v 0.484262 0.484375 -0.500000
v 0.500000 0.484375 0.484375
v -0.500000 0.484375 0.484375
v -0.484755 0.500000 -0.500000
v -0.484755 -0.500000 0.500000
v -0.484755 -0.500000 -0.500000
v -0.484755 0.500000 0.500000
v -0.484755 -0.484375 -0.500000
v -0.484755 -0.484375 0.500000
v -0.484755 0.500000 0.484375
v -0.484755 -0.500000 0.484375
v -0.484755 0.484375 -0.500000
v -0.484755 0.484375 0.500000
v 0.500000 0.500000 -0.484375
v 0.500000 -0.500000 -0.484375
v -0.500000 0.500000 -0.484375
v -0.500000 -0.500000 -0.484375
v -0.500000 -0.484375 -0.484375
v 0.500000 -0.484375 -0.484375
v 0.484262 -0.500000 -0.484375
v 0.484262 0.500000 -0.484375
v 0.500000 0.484375 -0.484375
v -0.500000 0.484375 -0.484375
v -0.484755 0.500000 -0.484375
v -0.484755 -0.500000 -0.484375
v 0.484262 -0.484375 0.484375
v -0.484755 -0.484375 0.484375
v -0.484755 0.484375 0.484375
v 0.484262 0.484375 0.484375
v 0.484262 0.484375 -0.484375
v 0.484262 -0.484375 -0.484375
v -0.484755 -0.484375 -0.484375
v -0.484755 0.484375 -0.484375
vn -0.0000 -0.0000 1.0000
vn -0.0000 -1.0000 -0.0000
vn -1.0000 -0.0000 -0.0000
vn -0.0000 -0.0000 -1.0000
vn 1.0000 -0.0000 -0.0000
vn -0.0000 1.0000 -0.0000
vt 0.005208 0.333333
vt 0.000000 0.328252
vt 0.005208 0.328252
vt 0.000000 0.338415
vt 0.005208 0.338415
vt 0.333333 0.005208
vt 0.338542 0.000000
vt 0.338542 0.005208
vt 0.338542 0.666667
vt 0.333333 0.661421
vt 0.338542 0.661421
vt 0.000000 0.671875
vt 0.005208 0.666667
vt 0.005208 0.671875
vt 0.333333 0.671913
vt 0.338542 0.671913
vt 0.333333 0.333333
vt 0.338542 0.328125
vt 0.338542 0.333333
vt 0.005208 0.005246
vt 0.000000 0.000000
vt 0.005208 0.000000
vt 0.000000 0.666667
vt 0.005208 0.661421
vt 0.333333 0.005246
vt 0.328125 0.000000
vt 0.333333 0.000000
vt 0.328125 0.328252
vt 0.333333 0.328252
vt 0.666667 0.666667
vt 0.661458 0.661421
vt 0.666667 0.661421
vt 0.000000 1.000000
vt 0.005208 0.994792
vt 0.005208 1.000000
vt 0.666667 0.338415
vt 0.661458 0.333333
vt 0.666667 0.333333
vt 0.338542 0.338415
vt 0.333333 1.000000
vt 0.338542 0.994918
vt 0.338542 1.000000
vt 0.661458 1.000000
vt 0.666667 0.994918
vt 0.666667 1.000000
vt 0.328125 1.000000
vt 0.333333 0.994792
vt 0.328125 0.666667
vt 0.333333 0.666667
vt 0.666667 0.328125
vt 0.328125 0.338415
vt 0.333333 0.338415
vt 0.661458 0.005208
vt 0.666667 0.000000
vt 0.666667 0.005208
vt 0.328125 0.671875
vt 0.333333 0.671875
vt 0.661458 0.671913
vt 0.666667 0.671913
vt 0.328125 0.333333
vt 0.333333 0.328125
vt 0.000000 0.661421
vt 0.000000 0.994792
vt 0.328125 0.005246
vt 0.333333 0.994918
vt 0.328125 0.661421
vt 0.328125 0.994792
vt 0.661458 0.666667
vt 0.671913 0.322917
vt 0.677121 0.645922
vt 0.671913 0.645922
vt 0.703200 0.968750
vt 0.661458 0.994918
vt 0.661458 0.000000
vt 0.661458 0.338415
vt 0.661458 0.328125
vt 0.692784 0.322917
vt 0.687575 0.000000
vt 0.692784 0.000000
vt 0.677121 0.968928
vt 0.692784 0.645833
vt 0.687575 0.322917
vt 0.682367 0.323006
vt 0.677159 0.000000
vt 0.682367 0.000000
vt 0.682367 0.646011
vt 0.677159 0.323006
vt 0.692784 0.968750
vt 0.687575 0.645833
vt 0.682367 0.969017
vt 0.677159 0.646011
vt 0.697992 0.322917
vt 0.697992 0.000000
vt 0.687575 0.323006
vt 0.697992 0.645833
vt 0.703074 0.968750
vt 0.697992 0.968750
vt 0.671913 0.000000
vt 0.666667 0.322917
vt 0.671913 0.645833
vt 0.666667 0.645833
vt 0.687575 0.646011
vt 0.708282 0.322917
vt 0.703200 0.000000
vt 0.708282 0.000000
vt 0.687575 0.969017
vt 0.666667 0.968750
vt 0.671913 0.968750
vt 0.677159 0.322917
vt 0.703200 0.322917
vt 0.703200 0.645833
vt 0.708282 0.645833
vt 0.708282 0.968750
vt 0.000000 0.333333
vt 0.000000 0.005246
vt 0.677121 0.322917
vt 0.671913 0.968928
vt 0.687575 0.968750
vt 0.677159 0.969017
vt 0.703074 0.645833
s 1
f 11/1/1 36/2/1 40/3/1
f 36/4/2 19/1/2 42/5/2
f 27/6/3 22/7/3 34/8/3
f 12/9/4 13/10/4 18/11/4
f 10/12/5 21/13/5 24/14/5
f 14/15/6 20/9/6 26/16/6
f 7/17/3 23/18/3 19/19/3
f 17/20/1 3/21/1 10/22/1
f 3/23/2 25/24/2 21/13/2
f 14/25/1 30/26/1 1/27/1
f 5/17/1 44/28/1 38/29/1
f 2/30/4 32/31/4 15/32/4
f 1/33/5 33/34/5 20/35/5
f 35/36/4 29/37/4 6/38/4
f 39/39/4 8/17/4 9/19/4
f 5/40/6 41/41/6 22/42/6
f 47/43/6 35/44/6 6/45/6
f 45/46/5 28/47/5 2/40/5
f 46/48/2 13/10/2 4/49/2
f 48/37/3 9/50/3 8/38/3
f 56/51/2 8/17/2 37/52/2
f 54/53/3 6/54/3 29/55/3
f 50/56/5 4/49/5 12/57/5
f 52/58/6 2/30/6 15/59/6
f 27/60/1 40/3/1 44/28/1
f 34/8/3 11/61/3 27/6/3
f 36/2/1 17/20/1 40/3/1
f 42/5/2 16/62/2 36/4/2
f 30/63/5 24/14/5 33/34/5
f 31/64/1 10/22/1 30/26/1
f 38/65/6 26/16/6 41/41/6
f 44/28/1 14/25/1 38/29/1
f 46/48/2 25/24/2 51/66/2
f 50/56/5 21/13/5 46/48/5
f 53/67/5 12/57/5 28/47/5
f 28/68/4 18/11/4 32/31/4
f 20/9/6 52/58/6 26/16/6
f 33/34/5 45/46/5 20/35/5
f 59/69/4 26/70/4 60/71/4
s 0
f 22/72/4 26/72/4 20/72/4
s 1
f 47/43/6 41/41/6 55/73/6
f 54/53/3 22/7/3 47/74/3
f 35/36/4 32/31/4 43/75/4
f 55/73/6 15/59/6 35/44/6
f 19/1/2 56/51/2 42/5/2
f 23/18/3 48/37/3 19/19/3
f 29/55/3 49/76/3 54/53/3
f 43/75/4 9/19/4 29/37/4
f 37/52/2 51/66/2 56/51/2
f 39/39/4 13/10/4 37/52/4
f 57/77/3 31/78/3 60/79/3
f 58/80/6 17/71/6 57/70/6
f 59/81/5 40/82/5 58/77/5
f 60/83/2 44/84/2 59/85/2
f 57/86/4 42/87/4 58/83/4
f 18/88/3 61/89/3 32/81/3
f 39/90/6 62/91/6 18/86/6
f 43/92/5 63/79/5 39/93/5
f 32/94/2 64/85/2 43/78/2
f 58/95/4 34/96/4 59/97/4
f 60/69/4 24/54/4 57/98/4
f 62/99/1 53/100/1 61/101/1
f 61/83/1 55/102/1 64/86/1
f 64/103/1 49/104/1 63/105/1
f 63/106/1 51/86/1 62/102/1
f 61/81/3 26/92/3 52/95/3
f 53/107/2 60/100/2 61/108/2
f 62/69/6 24/84/6 50/109/6
f 51/88/3 57/95/3 62/97/3
f 63/92/5 42/104/5 56/110/5
f 49/111/6 58/103/6 63/112/6
f 64/72/2 34/112/2 54/113/2
f 55/95/5 59/110/5 64/111/5
f 11/1/1 7/114/1 36/2/1
f 36/4/2 7/114/2 19/1/2
f 27/6/3 5/27/3 22/7/3
f 12/9/4 4/49/4 13/10/4
f 10/12/5 3/23/5 21/13/5
f 14/15/6 1/49/6 20/9/6
f 7/17/3 11/61/3 23/18/3
f 17/20/1 16/115/1 3/21/1
f 3/23/2 16/62/2 25/24/2
f 14/25/1 31/64/1 30/26/1
f 5/17/1 27/60/1 44/28/1
f 2/30/4 28/68/4 32/31/4
f 1/33/5 30/63/5 33/34/5
f 35/36/4 43/75/4 29/37/4
f 39/39/4 37/52/4 8/17/4
f 5/40/6 38/65/6 41/41/6
f 47/43/6 55/73/6 35/44/6
f 45/46/5 53/67/5 28/47/5
f 46/48/2 51/66/2 13/10/2
f 48/37/3 49/76/3 9/50/3
f 56/51/2 48/60/2 8/17/2
f 54/53/3 47/74/3 6/54/3
f 50/56/5 46/48/5 4/49/5
f 52/58/6 45/68/6 2/30/6
f 27/60/1 11/1/1 40/3/1
f 34/8/3 23/18/3 11/61/3
f 36/2/1 16/115/1 17/20/1
f 42/5/2 25/24/2 16/62/2
f 30/63/5 10/12/5 24/14/5
f 31/64/1 17/20/1 10/22/1
f 38/65/6 14/15/6 26/16/6
f 44/28/1 31/64/1 14/25/1
f 46/48/2 21/13/2 25/24/2
f 50/56/5 24/14/5 21/13/5
f 53/67/5 50/56/5 12/57/5
f 28/68/4 12/9/4 18/11/4
f 20/9/6 45/68/6 52/58/6
f 33/34/5 53/67/5 45/46/5
f 59/69/4 41/116/4 26/70/4
s 0
f 22/72/1 41/72/1 26/72/1
s 1
f 47/43/6 22/42/6 41/41/6
f 54/53/3 34/8/3 22/7/3
f 35/36/4 15/32/4 32/31/4
f 55/73/6 52/58/6 15/59/6
f 19/1/2 48/60/2 56/51/2
f 23/18/3 49/76/3 48/37/3
f 29/55/3 9/50/3 49/76/3
f 43/75/4 39/39/4 9/19/4
f 37/52/2 13/10/2 51/66/2
f 39/39/4 18/11/4 13/10/4
f 57/77/3 17/82/3 31/78/3
f 58/80/6 40/117/6 17/71/6
f 59/81/5 44/89/5 40/82/5
f 60/83/2 31/87/2 44/84/2
f 57/86/4 25/91/4 42/87/4
f 18/88/3 62/118/3 61/89/3
f 39/90/6 63/119/6 62/91/6
f 43/92/5 64/77/5 63/79/5
f 32/94/2 61/83/2 64/85/2
f 58/95/4 23/120/4 34/96/4
f 60/69/4 33/99/4 24/54/4
f 62/99/1 50/69/1 53/100/1
f 61/83/1 52/94/1 55/102/1
f 64/103/1 54/110/1 49/104/1
f 63/106/1 56/90/1 51/86/1
f 61/81/3 60/77/3 26/92/3
f 53/107/2 33/101/2 60/100/2
f 62/69/6 57/98/6 24/84/6
f 51/88/3 25/81/3 57/95/3
f 63/92/5 58/93/5 42/104/5
f 49/111/6 23/110/6 58/103/6
f 64/72/2 59/111/2 34/112/2
f 55/95/5 41/92/5 59/110/5
